<?xml version="1.0" standalone="no"?>
<!DOCTYPE svg PUBLIC "-//W3C//DTD SVG 20010904//EN"
 "http://www.w3.org/TR/2001/REC-SVG-20010904/DTD/svg10.dtd">
<svg version="1.0" xmlns="http://www.w3.org/2000/svg"
 width="1181.000000pt" height="1181.000000pt" viewBox="0 0 1181.000000 1181.000000"
 preserveAspectRatio="xMidYMid meet">

<g transform="translate(0.000000,1181.000000) scale(0.100000,-0.100000)"
fill="#000000" stroke="none">
<path d="M4117 8783 c-38 -10 -98 -153 -133 -315 -13 -60 -18 -127 -19 -243 0
-147 2 -168 28 -255 53 -178 149 -465 234 -695 47 -126 157 -430 245 -675 183
-510 292 -800 406 -1085 44 -110 114 -308 157 -440 42 -132 100 -296 127 -365
28 -69 78 -204 113 -300 35 -96 95 -254 134 -351 39 -97 79 -210 88 -252 l17
-77 -40 -57 c-44 -64 -84 -91 -185 -123 -113 -35 -114 -37 -114 -179 0 -85 4
-124 13 -133 10 -10 191 -13 928 -13 l916 0 20 25 c18 23 20 36 16 132 -5 130
-19 158 -77 158 -59 0 -188 37 -270 77 -61 30 -97 59 -182 143 l-107 106 -90
185 c-50 101 -125 275 -166 386 -42 111 -106 273 -142 360 -36 87 -108 259
-159 383 -51 124 -110 268 -133 320 -22 52 -64 151 -92 220 -103 246 -380 899
-465 1095 -97 222 -225 532 -428 1035 -74 184 -145 358 -157 385 -12 28 -50
118 -85 200 -97 230 -142 323 -162 333 -20 11 -208 23 -236 15z"/>
<path d="M5291 8690 l-115 -5 -9 -35 c-14 -55 -5 -226 13 -245 10 -9 48 -18
100 -23 209 -22 383 -159 439 -347 37 -124 41 -224 41 -1065 0 -448 3 -912 7
-1031 l6 -217 221 -6 c536 -14 1581 -28 2408 -33 l896 -6 4 -61 c2 -33 0 -407
-3 -831 -5 -688 -7 -778 -23 -845 -26 -110 -62 -176 -136 -250 -84 -84 -165
-126 -288 -152 -53 -10 -102 -24 -109 -30 -16 -13 -18 -203 -3 -242 6 -17 22
-29 47 -36 27 -8 271 -10 863 -7 775 3 883 7 907 31 13 12 15 204 4 239 -13
39 -13 38 -134 57 -127 20 -213 65 -304 161 -38 40 -76 115 -93 184 -10 40
-12 472 -11 2087 2 2236 -3 2068 62 2169 40 64 115 132 180 165 30 14 105 39
168 55 63 16 119 33 125 39 6 6 12 57 14 114 5 114 -9 161 -51 171 -12 3 -412
4 -889 3 -694 -2 -870 -6 -880 -16 -19 -19 -24 -241 -6 -265 8 -10 58 -30 122
-48 138 -38 190 -65 268 -138 69 -64 98 -114 123 -206 32 -121 36 -258 29
-1062 l-7 -792 -1406 -3 c-773 -2 -1412 -1 -1419 1 -11 3 -12 162 -9 855 3
821 4 854 24 943 27 117 71 200 143 266 76 71 134 100 270 136 68 18 120 38
128 48 8 11 12 56 12 134 0 96 -3 119 -17 130 -13 12 -151 14 -807 14 -435 0
-842 -2 -905 -5z"/>
<path d="M2131 4044 c-23 -20 -62 -72 -88 -116 -28 -47 -86 -120 -143 -178
-77 -80 -108 -105 -160 -128 -91 -41 -152 -59 -249 -76 -46 -8 -91 -22 -100
-31 -23 -23 -29 -231 -8 -260 15 -20 27 -20 819 -20 442 0 816 4 832 8 l28 8
-3 114 c-4 124 -20 162 -70 177 -13 4 -44 12 -69 18 -31 8 -58 26 -87 56 -73
75 -77 90 -83 266 -4 133 -8 160 -23 175 -16 16 -44 18 -287 21 l-269 3 -40
-37z"/>
</g>
</svg>
